<svg width="54" height="57" viewBox="0 0 54 57" fill="none" xmlns="http://www.w3.org/2000/svg">
<path d="M26.6408 57C41.3077 57 53.1976 44.2401 53.1976 28.5C53.1976 12.7599 41.3077 0 26.6408 0C11.9739 0 0.0839844 12.7599 0.0839844 28.5C0.0839844 44.2401 11.9739 57 26.6408 57Z" fill="#7D2AE7"/>
<path d="M26.6408 57C41.3077 57 53.1976 44.2401 53.1976 28.5C53.1976 12.7599 41.3077 0 26.6408 0C11.9739 0 0.0839844 12.7599 0.0839844 28.5C0.0839844 44.2401 11.9739 57 26.6408 57Z" fill="url(#paint0_radial_115_84)"/>
<path d="M26.6408 57C41.3077 57 53.1976 44.2401 53.1976 28.5C53.1976 12.7599 41.3077 0 26.6408 0C11.9739 0 0.0839844 12.7599 0.0839844 28.5C0.0839844 44.2401 11.9739 57 26.6408 57Z" fill="url(#paint1_radial_115_84)"/>
<path d="M26.6408 57C41.3077 57 53.1976 44.2401 53.1976 28.5C53.1976 12.7599 41.3077 0 26.6408 0C11.9739 0 0.0839844 12.7599 0.0839844 28.5C0.0839844 44.2401 11.9739 57 26.6408 57Z" fill="url(#paint2_radial_115_84)"/>
<path d="M26.6408 57C41.3077 57 53.1976 44.2401 53.1976 28.5C53.1976 12.7599 41.3077 0 26.6408 0C11.9739 0 0.0839844 12.7599 0.0839844 28.5C0.0839844 44.2401 11.9739 57 26.6408 57Z" fill="url(#paint3_radial_115_84)"/>
<path d="M38.1063 34.3464C37.8871 34.3464 37.6942 34.545 37.4935 34.9788C35.2269 39.9111 31.3122 43.401 26.782 43.401C21.5439 43.401 18.3001 38.3265 18.3001 31.3161C18.3001 19.4411 24.4654 12.5752 29.8806 12.5752C32.4111 12.5752 33.9564 14.2817 33.9564 16.9975C33.9564 20.2207 32.2501 21.9272 32.2501 23.064C32.2501 23.5742 32.5458 23.8832 33.1323 23.8832C35.4886 23.8832 38.2541 20.9776 38.2541 16.8727C38.2541 12.8927 35.0262 9.96716 29.6111 9.96716C20.6616 9.96716 12.708 18.8713 12.708 31.1913C12.708 40.7277 17.7824 47.0295 25.6119 47.0295C33.922 47.0295 38.7271 38.1564 38.7271 35.2764C38.7271 34.6386 38.4233 34.3464 38.1063 34.3464Z" fill="white"/>
<defs>
<radialGradient id="paint0_radial_115_84" cx="0" cy="0" r="1" gradientUnits="userSpaceOnUse" gradientTransform="translate(10.3435 50.5203) rotate(-51.4027) scale(42.8383 42.2741)">
<stop stop-color="#6420FF"/>
<stop offset="1" stop-color="#6420FF" stop-opacity="0"/>
</radialGradient>
<radialGradient id="paint1_radial_115_84" cx="0" cy="0" r="1" gradientUnits="userSpaceOnUse" gradientTransform="translate(14.145 6.47988) rotate(56.5875) scale(48.6082 47.3775)">
<stop stop-color="#00C4CC"/>
<stop offset="1" stop-color="#00C4CC" stop-opacity="0"/>
</radialGradient>
<radialGradient id="paint2_radial_115_84" cx="0" cy="0" r="1" gradientUnits="userSpaceOnUse" gradientTransform="translate(10.3433 50.52) rotate(-47.2162) scale(42.1026 19.3061)">
<stop stop-color="#6420FF"/>
<stop offset="1" stop-color="#6420FF" stop-opacity="0"/>
</radialGradient>
<radialGradient id="paint3_radial_115_84" cx="0" cy="0" r="1" gradientUnits="userSpaceOnUse" gradientTransform="translate(21.8047 7.68) rotate(67.9627) scale(44.4042 70.7954)">
<stop stop-color="#00C4CC" stop-opacity="0.725916"/>
<stop offset="0.0001" stop-color="#00C4CC"/>
<stop offset="1" stop-color="#00C4CC" stop-opacity="0"/>
</radialGradient>
</defs>
</svg>
