<svg width="53" height="57" viewBox="0 0 53 57" fill="none" xmlns="http://www.w3.org/2000/svg">
<path fill-rule="evenodd" clip-rule="evenodd" d="M26.4219 28.5C26.4219 23.2534 32.1668 19 39.2532 19C46.3396 19 52.0845 23.2534 52.0845 28.5C52.0845 33.7466 46.3396 38 39.2532 38C32.1668 38 26.4219 33.7466 26.4219 28.5Z" fill="#1ABCFE"/>
<path fill-rule="evenodd" clip-rule="evenodd" d="M0.759766 47.5C0.759766 42.2533 6.50453 37.9999 13.5911 37.9999H26.4224V47.5C26.4224 52.7466 20.6775 57 13.5911 57C6.50453 57 0.759766 52.7466 0.759766 47.5Z" fill="#0ACF83"/>
<path fill-rule="evenodd" clip-rule="evenodd" d="M26.4219 -6.10352e-05V19H39.2532C46.3396 19 52.0845 14.7466 52.0845 9.49996C52.0845 4.25324 46.3396 -6.10352e-05 39.2532 -6.10352e-05H26.4219Z" fill="#FF7262"/>
<path fill-rule="evenodd" clip-rule="evenodd" d="M0.759766 9.49996C0.759766 14.7466 6.50453 19 13.5911 19H26.4224V-6.10352e-05H13.5911C6.50453 -6.10352e-05 0.759766 4.25324 0.759766 9.49996Z" fill="#F24E1E"/>
<path fill-rule="evenodd" clip-rule="evenodd" d="M0.759766 28.5C0.759766 33.7466 6.50453 38 13.5911 38H26.4224V19H13.5911C6.50453 19 0.759766 23.2534 0.759766 28.5Z" fill="#A259FF"/>
</svg>
