<svg width="54" height="57" viewBox="0 0 54 57" fill="none" xmlns="http://www.w3.org/2000/svg">
<rect x="7.92773" y="6.73798" width="38.7575" height="41.885" fill="white"/>
<path fill-rule="evenodd" clip-rule="evenodd" d="M43.2631 17.1H43.2421H17.8728L18.4795 22.8H42.6594C42.305 27.7932 41.2328 38.3719 40.8394 43.1856L27.2583 46.8858V46.897L27.2282 46.9109L13.6381 42.2824L12.7071 31.35H19.3685L19.84 37.2295L27.2402 39.9H27.2583L34.6465 37.3353L35.4063 28.5H12.4097C12.2986 27.3571 10.869 12.5172 10.6197 11.4H43.8577C43.6715 13.281 43.4823 15.2133 43.2631 17.1ZM0.759766 0L5.58313 51.7217L27.2282 57L48.9304 51.6159L53.7598 0H0.759766Z" fill="#F16529"/>
</svg>
