<svg width="59" height="61" viewBox="0 0 59 61" fill="none" xmlns="http://www.w3.org/2000/svg">
<path d="M0.759766 29.5C0.759766 13.4837 13.7435 0.5 29.7598 0.5C45.776 0.5 58.7598 13.4837 58.7598 29.5V31.5C58.7598 47.5163 45.776 60.5 29.7598 60.5C13.7435 60.5 0.759766 47.5163 0.759766 31.5V29.5Z" fill="#F7DF1E"/>
<path d="M13.7209 49.8128L17.9297 47.0792C18.7418 48.6243 19.4804 49.9316 21.2523 49.9316C22.9506 49.9316 24.0216 49.2186 24.0216 46.4454V27.5857H29.1901V46.5238C29.1901 52.2688 26.0521 54.8838 21.4738 54.8838C17.3391 54.8838 14.9391 52.5858 13.7207 49.8123M31.9975 49.2184L36.2058 46.6036C37.3138 48.5452 38.7537 49.9714 41.3008 49.9714C43.4426 49.9714 44.8082 48.8223 44.8082 47.2374C44.8082 45.3357 43.4052 44.662 41.0424 43.553L39.7505 42.9581C36.0215 41.255 33.548 39.1153 33.548 34.5986C33.548 30.4383 36.5014 27.2685 41.1165 27.2685C44.4023 27.2685 46.7652 28.4969 48.4633 31.7062L44.4388 34.4798C43.5526 32.7762 42.5931 32.1027 41.1163 32.1027C39.6025 32.1027 38.6426 33.1329 38.6426 34.4798C38.6426 36.1438 39.6025 36.8178 41.8175 37.8479L43.1096 38.4421C47.5032 40.463 49.9767 42.5231 49.9767 47.1583C49.9767 52.151 46.3217 54.8845 41.4115 54.8845C36.6121 54.8845 33.5108 52.4281 31.9972 49.2186" fill="black"/>
</svg>
