<svg width="48" height="67" viewBox="0 0 48 67" fill="none" xmlns="http://www.w3.org/2000/svg">
<path d="M32.4413 7.46761C28.2167 4.13129 24.5789 0.742853 23.8357 0.0390975C23.7574 -0.0130325 23.6401 -0.0130325 23.5618 0.0390975C22.8186 0.742853 19.1808 4.13129 14.9561 7.46761C-21.305 38.2502 20.6672 59.0241 20.6672 59.0241L21.0193 59.1805C21.3322 62.3864 22.1145 67 22.1145 67H23.6792H25.2438C25.2438 67 26.0262 62.4125 26.3391 59.1805L26.6912 58.9981C26.7303 59.0241 68.7026 38.2502 32.4413 7.46761ZM23.6792 58.5809C23.6792 58.5809 21.8016 57.5123 21.2931 56.9649V56.913L23.5618 23.3933C23.5618 23.289 23.7966 23.289 23.7966 23.3933L26.0653 56.913V56.9649C25.5568 57.5123 23.6792 58.5809 23.6792 58.5809Z" fill="#00684A"/>
</svg>
