<svg width="54" height="57" viewBox="0 0 54 57" fill="none" xmlns="http://www.w3.org/2000/svg">
<path d="M27.2602 57C26.4372 57 25.6689 56.7906 24.9557 56.4239L17.6585 52.2869C16.5613 51.711 17.1099 51.5016 17.4391 51.3969C18.9205 50.9255 19.1947 50.8207 20.7309 49.983C20.8955 49.8782 21.1152 49.9305 21.2798 50.0352L26.8762 53.2297C27.0956 53.3344 27.3698 53.3344 27.5344 53.2297L49.4266 41.1331C49.6446 41.0284 49.7564 40.8189 49.7564 40.5573V16.4166C49.7564 16.1547 49.6446 15.9452 49.4266 15.8405L27.5344 3.79645C27.315 3.69172 27.0405 3.69172 26.8762 3.79645L4.9845 15.8405C4.76484 15.9452 4.65529 16.2072 4.65529 16.4166V40.5573C4.65529 40.7667 4.76484 41.0284 4.9845 41.1331L10.9649 44.432C14.202 46.0032 16.232 44.1704 16.232 42.3376V18.5111C16.232 18.1969 16.5062 17.8828 16.8905 17.8828H19.6885C20.0177 17.8828 20.347 18.1447 20.347 18.5111V42.3376C20.347 46.4743 17.9877 48.8832 13.8728 48.8832C12.611 48.8832 11.6233 48.8832 8.82498 47.574L3.06398 44.432C1.63757 43.6467 0.759766 42.1803 0.759766 40.6095V16.4689C0.759766 14.898 1.63757 13.4319 3.06398 12.6463L24.9557 0.550005C26.3273 -0.183335 28.1928 -0.183335 29.5644 0.550005L51.457 12.6463C52.8822 13.4319 53.7598 14.898 53.7598 16.4689V40.6095C53.7598 42.1803 52.8822 43.6467 51.457 44.432L29.5644 56.5286C28.906 56.7906 28.0832 57 27.2602 57Z" fill="#5FA04E"/>
<path d="M34.094 40.4809C24.5377 40.4809 22.5723 36.2616 22.5723 32.6751C22.5723 32.3587 22.8451 32.0423 23.2272 32.0423H26.0665C26.3941 32.0423 26.6672 32.2532 26.6672 32.5696C27.1039 35.3649 28.3598 36.7361 34.1483 36.7361C38.7343 36.7361 40.7006 35.7342 40.7006 33.3609C40.7006 31.9894 40.1527 30.9872 33.0007 30.3018C27.0494 29.7215 23.3365 28.4558 23.3365 23.8672C23.3365 19.5953 27.0493 17.0637 33.2738 17.0637C40.264 17.0637 43.7029 19.3844 44.1395 24.4475C44.1395 24.6056 44.0853 24.7639 43.9768 24.922C43.8655 25.0275 43.7029 25.1332 43.5373 25.1332H40.6436C40.3724 25.1332 40.0985 24.922 40.0443 24.6584C39.3879 21.7577 37.6956 20.8082 33.2193 20.8082C28.196 20.8082 27.5953 22.4961 27.5953 23.7618C27.5953 25.2913 28.305 25.7661 35.0757 26.6099C41.7908 27.4537 44.9585 28.6668 44.9585 33.2025C44.9585 37.8437 40.9717 40.4809 34.094 40.4809Z" fill="#5FA04E"/>
</svg>
