<svg width="54" height="57" viewBox="0 0 54 57" fill="none" xmlns="http://www.w3.org/2000/svg">
<path d="M31.9923 28.4472C31.9923 25.3025 29.8735 22.7529 27.2596 22.7529C24.646 22.7529 22.5269 25.3025 22.5269 28.4472C22.5269 31.5923 24.646 34.1417 27.2596 34.1417C29.8735 34.1417 31.9923 31.5923 31.9923 28.4472Z" fill="#53C1DE"/>
<path fill-rule="evenodd" clip-rule="evenodd" d="M42.6305 17.8754C43.6299 12.9889 44.8862 3.92747 40.4575 0.855348C36.0495 -2.20338 30.3133 3.65771 27.2843 7.17582C24.2642 3.69276 18.3669 -2.14327 13.942 0.938612C9.5357 4.0076 10.8945 12.9188 11.9161 17.836C7.80578 19.2406 0.759766 22.266 0.759766 28.4472C0.759766 34.6108 7.79845 37.9024 11.8844 39.3057C10.8591 44.25 9.56829 53.0339 13.9802 56.0961C18.4217 59.1774 24.3006 53.4802 27.3576 49.9237C30.406 53.4625 36.0871 59.1969 40.496 56.1261C44.9187 53.0457 43.7668 44.1057 42.7451 39.1601C46.706 37.7537 53.7598 34.5339 53.7598 28.4472C53.7598 22.3254 46.676 19.2754 42.6305 17.8754ZM42.1284 36.5392C41.4576 33.9843 40.5522 31.2673 39.4446 28.4608C40.5018 25.7204 41.3721 23.0385 42.0242 20.5C44.9899 21.5346 51.4958 23.899 51.4958 28.4472C51.4958 33.0381 45.2526 35.4248 42.1284 36.5392ZM39.3614 53.7685C36.0719 56.0595 31.1855 50.5757 28.9342 47.9697C30.4278 46.0043 31.9202 43.7194 33.3768 41.1823C35.9392 40.9089 38.3597 40.4617 40.555 39.8511C41.274 43.3494 42.6655 51.4673 39.3614 53.7685ZM15.1115 53.7359C11.8216 51.4535 13.3253 43.6151 14.0797 39.973C16.2505 40.5509 18.6536 40.9666 21.222 41.2171C22.6882 43.6997 24.2239 45.9817 25.7715 47.9802C23.8595 50.2056 18.4167 56.0288 15.1115 53.7359ZM3.02373 28.4472C3.02373 23.8392 9.49076 21.4918 12.5241 20.4599C13.1874 23.0554 14.0574 25.7693 15.1073 28.5136C14.0438 31.2987 13.1614 34.0555 12.4919 36.6817C9.59962 35.6855 3.02373 33.058 3.02373 28.4472ZM15.0763 3.29622C18.3796 0.995656 23.5051 6.59847 25.6979 9.12028C24.1582 11.1096 22.6366 13.3744 21.183 15.8427C18.6904 16.1207 16.3042 16.567 14.1106 17.1651C13.2876 13.1992 11.7766 5.59431 15.0763 3.29622ZM34.9965 18.8036C36.6876 19.0604 38.3078 19.4019 39.8291 19.8198C39.3724 21.5811 38.8032 23.4228 38.1327 25.3108C37.1609 23.0922 36.1177 20.9181 34.9965 18.8036ZM27.285 11.067C28.3293 12.4281 29.3752 13.9481 30.4041 15.5972C28.3171 15.4783 26.2268 15.4779 24.1398 15.5954C25.1696 13.9617 26.2245 12.4439 27.285 11.067ZM16.4062 25.3089C15.7469 23.4274 15.1828 21.5776 14.7221 19.7911C16.2343 19.3839 17.847 19.0512 19.5271 18.7986C18.4028 20.9085 17.3613 23.0817 16.4062 25.3089ZM19.5753 38.2902C17.8397 38.0571 16.2027 37.7412 14.6909 37.3453C15.1589 35.5274 15.7354 33.6377 16.4088 31.7157C17.377 33.9661 18.4344 36.1604 19.5753 38.2902ZM27.3477 46.0198C26.2747 44.6266 25.2042 43.0856 24.1589 41.4283C26.2577 41.5273 28.3606 41.5276 30.4592 41.4149C29.4271 43.1025 28.385 44.6457 27.3477 46.0198ZM38.1543 31.6179C38.8627 33.5607 39.4598 35.4402 39.9342 37.2274C38.3974 37.6494 36.7383 37.9892 34.9902 38.2415C36.1196 36.0869 37.1794 33.879 38.1543 31.6179ZM32.1133 38.5717C28.9029 38.8477 25.6726 38.8446 22.4611 38.5943C20.6364 35.3871 19.0119 32.0143 17.6097 28.5127C19.0052 25.0184 20.6178 21.6521 22.4339 18.45C25.6477 18.1578 28.8812 18.1569 32.095 18.4518C33.8955 21.6536 35.5057 25.0112 36.9335 28.4739C35.5226 31.9665 33.9015 35.3396 32.1133 38.5717ZM39.3266 3.21524C42.6308 5.50826 41.1601 13.6521 40.4382 17.1934C38.2394 16.5828 35.8516 16.1286 33.3518 15.8462C31.8953 13.3512 30.3864 11.0825 28.8717 9.11888C31.0925 6.54274 36.0544 0.944641 39.3266 3.21524Z" fill="#53C1DE"/>
</svg>
