<svg width="64" height="67" viewBox="0 0 64 67" fill="none" xmlns="http://www.w3.org/2000/svg">
<path d="M15.9482 22.3333C18.0482 7.44444 23.2982 0 31.6982 0C44.2982 0 45.8732 16.75 52.1732 19.5417C56.3732 21.4028 60.0482 18.6111 63.1982 11.1667C61.0982 26.0556 55.8482 33.5 47.4482 33.5C34.8482 33.5 33.2732 16.75 26.9732 13.9583C22.7732 12.0972 19.0982 14.8889 15.9482 22.3333ZM0.198242 55.8333C2.29824 40.9444 7.54824 33.5 15.9482 33.5C28.5482 33.5 30.1232 50.25 36.4232 53.0417C40.6232 54.9028 44.2982 52.1111 47.4482 44.6667C45.3482 59.5556 40.0982 67 31.6982 67C19.0982 67 17.5232 50.25 11.2232 47.4583C7.02324 45.5972 3.34824 48.3889 0.198242 55.8333Z" fill="#44A8B3"/>
</svg>
